<svg id="Group_220" data-name="Group 220" xmlns="http://www.w3.org/2000/svg" xmlns:xlink="http://www.w3.org/1999/xlink" viewBox="0 0 235.099 82.466"><defs><style>.cls-1{fill:#c8342a}.cls-5{fill:#1b3f71}</style><linearGradient id="linear-gradient" x1="-.027" y1=".5" x2=".956" y2=".5" gradientUnits="objectBoundingBox"><stop offset="0" stop-color="#f26e26"/><stop offset=".975" stop-color="#ffd349"/></linearGradient><linearGradient id="linear-gradient-2" x1="-.027" y1=".502" x2=".956" y2=".502" xlink:href="#linear-gradient"/><linearGradient id="linear-gradient-3" x1="-.528" y1=".501" x2=".781" y2=".501" xlink:href="#linear-gradient"/></defs><path id="Path_208" data-name="Path 208" class="cls-1" d="M372.4 15.272l11.176 8.928 7.059-5.615L371.65 13.4a1.755 1.755 0 0 0 .75 1.872z" transform="translate(-172.864 -6.234)"/><path id="Path_209" data-name="Path 209" d="M404.055.7c-.053-.214-.321-.7-1.177-.7a2.6 2.6 0 0 0-.642.053L373.2 5.99a1.681 1.681 0 0 0-1.5 1.177l18.985 5.188 12.568-10c.268-.216 1.07-.855.802-1.655z" transform="translate(-172.914)" fill="url(#linear-gradient)"/><path id="Path_210" data-name="Path 210" class="cls-1" d="M372.4 42.531l11.176-8.931 7.059 5.615L371.65 44.4a1.755 1.755 0 0 1 .75-1.869z" transform="translate(-172.864 -15.631)"/><path id="Path_211" data-name="Path 211" d="M404.055 55.759c-.053.214-.321.7-1.177.7a2.6 2.6 0 0 1-.642-.053L373.2 50.464a1.681 1.681 0 0 1-1.5-1.177l18.985-5.187 12.568 10c.268.215 1.07.856.802 1.659z" transform="translate(-172.914 -20.515)" fill="url(#linear-gradient-2)"/><path id="Path_212" data-name="Path 212" d="M394.1 28.715l7.059 5.615s12.247-3.316 14.386-3.9 2.888-.856 2.888-1.711-.749-1.123-2.888-1.711-14.386-3.9-14.386-3.9l-7.059 5.607" transform="translate(-183.335 -10.746)" fill="url(#linear-gradient-3)"/><g id="Group_220-2" data-name="Group 220" transform="translate(0 30.751)"><path id="Path_213" data-name="Path 213" class="cls-5" d="M31.941 81.478a.96.96 0 0 0-1.07-1.07H29v-5.187h5.562c2.139 0 3.262.909 3.262 2.995v1.444a10.43 10.43 0 0 1-.107 1.551h.107c1.07-3.53 4.011-6.311 7.755-6.311a7.332 7.332 0 0 1 1.123.107V81a10.1 10.1 0 0 0-1.5-.107 6.953 6.953 0 0 0-6.685 5.134 15.386 15.386 0 0 0-.535 3.958v9.68h-6.041z" transform="translate(-13.491 -65.594)"/><path id="Path_214" data-name="Path 214" class="cls-5" d="M68.7 75.5h6.043v18.29a.96.96 0 0 0 1.07 1.07h1.925v5.134h-5.776c-2.246 0-3.209-.963-3.209-3.262V75.5z" transform="translate(-31.959 -65.874)"/><path id="Path_215" data-name="Path 215" class="cls-5" d="M91.595 81.292a.96.96 0 0 0-1.07-1.07H88.6v-5.187h5.615c2.139 0 3.209 1.016 3.209 2.727v.749c0 .535-.053 1.07-.053 1.07h.107a9.107 9.107 0 0 1 7.915-5.081c3.69 0 6.1 1.711 7.166 5.027h.107a9.431 9.431 0 0 1 8.343-5.027c5.081 0 8.022 2.888 8.022 9.306v15.67h-6.1V84.929c0-2.781-.535-4.92-3.369-4.92-3.048 0-5.188 2.567-5.829 5.615a11.472 11.472 0 0 0-.374 3.1v10.75h-6.1V84.929c0-2.621-.374-4.92-3.316-4.92-3.048 0-5.134 2.567-5.883 5.669a13.989 13.989 0 0 0-.374 3.048v10.75h-6.1z" transform="translate(-41.217 -65.408)"/><path id="Path_216" data-name="Path 216" class="cls-5" d="M193.664 86.005c0-6.471-3.851-11.605-10.856-11.605-7.327 0-12.407 5.295-12.407 12.835 0 6.952 5.027 12.835 13.156 12.835a14.9 14.9 0 0 0 9.84-3.69l-2.567-4.225a11.173 11.173 0 0 1-6.845 2.727 7.021 7.021 0 0 1-7.327-6.578h16.9c-.058-.053.106-1.55.106-2.299zm-16.846-1.925a5.886 5.886 0 0 1 5.99-4.92c2.514 0 4.492 2.032 4.6 4.92z" transform="translate(-79.27 -65.362)"/><path id="Path_217" data-name="Path 217" class="cls-5" d="M240.278 74.988c-1.925 0-2.674 1.177-2.674 2.246v.642h-.104s-1.872-3.476-7.541-3.476c-7.059 0-10.856 5.455-10.856 12.193S223.058 99 230.117 99c3.262 0 5.4-1.123 6.792-3.155h.107s-.053.053-.053.535v1.177c0 4.439-3.209 5.99-6.9 5.99a15.786 15.786 0 0 1-6.792-1.658L221.4 106.7a19.718 19.718 0 0 0 8.664 2.086c6.364 0 12.889-3.155 12.889-11.552v-16.1c0-.642.428-.963 1.07-.963h1.872v-5.183zM231.4 93.867c-3.958 0-6.1-3.155-6.1-7.434 0-4.118 2.032-6.792 5.722-6.792 3.316 0 6.1 1.5 6.1 7.059-.053 5.455-2.834 7.167-5.722 7.167z" transform="translate(-101.925 -65.362)"/><path id="Path_218" data-name="Path 218" class="cls-5" d="M293.762 94.72a.96.96 0 0 1-1.07-1.07v-9.144c0-5.455-2.407-9.306-10.536-9.306-2.567 0-8.076.107-8.076.107v5.134s6.952-.053 8.022-.053c3.1 0 4.492.374 4.492 3.851v.214h-.749c-3.958 0-14.547.642-14.547 8.289 0 4.92 3.958 7.648 8.343 7.648a7.962 7.962 0 0 0 7.38-4.332h.107a9.537 9.537 0 0 0-.053 1.07c0 1.444.856 2.674 3.1 2.674h5.455v-5.135h-1.872zm-7.062-5.508c0 2.995-2.3 6.418-5.562 6.418-2.514 0-3.69-1.551-3.69-3.155 0-3.423 5.027-3.851 8.182-3.851h1.07z" transform="translate(-126.208 -65.734)"/><path id="Path_219" data-name="Path 219" class="cls-5" d="M320.395 63.757a.96.96 0 0 0-1.07-1.07H317.4V57.5h5.829c2.246 0 3.262 1.016 3.262 3.209v8.61a19.842 19.842 0 0 1-.107 2.086h.107a9.38 9.38 0 0 1 8.4-4.867c5.455 0 8.557 2.834 8.557 9.306v9.573a.96.96 0 0 0 1.07 1.07h1.925v5.133h-5.833c-2.246 0-3.209-.963-3.209-3.262V77.127c0-2.995-.8-4.974-3.9-4.974a6.931 6.931 0 0 0-6.632 5.081 11.875 11.875 0 0 0-.374 3.155V91.62h-6.1z" transform="translate(-147.654 -57.5)"/><path id="Path_220" data-name="Path 220" class="cls-5" d="M0 61.3h6.1v7.594h5.562v5.188H6.1V83.6c0 4.011 3.155 4.6 4.813 4.6a5.093 5.093 0 0 0 1.123-.107v5.295a9.845 9.845 0 0 1-1.872.16C6.738 93.549 0 92.532 0 84.35z" transform="translate(0 -59.268)"/></g><g id="Group_221" data-name="Group 221" transform="translate(.321 74.177)"><path id="Path_221" data-name="Path 221" class="cls-5" d="M3.007 147.036a4.438 4.438 0 0 1-2.407-.7l.535-.963a3.488 3.488 0 0 0 1.818.588c.642 0 1.444-.321 1.444-1.016 0-1.23-1.979-1.5-2.941-2.567a2.072 2.072 0 0 1-.535-1.444c0-1.177.909-2.139 2.567-2.139a4.272 4.272 0 0 1 1.925.428v1.23a3.663 3.663 0 0 0-1.818-.588c-.7 0-1.284.321-1.284.909 0 1.6 3.53 1.551 3.53 4.011a2.567 2.567 0 0 1-2.834 2.251z" transform="translate(-.6 -138.747)"/><path id="Path_222" data-name="Path 222" class="cls-5" d="M16.2 146.829V138.7h4.332l-.374 1.123h-2.621v2.3h2.621v1.123h-2.621v2.46h3.048v1.123z" transform="translate(-7.857 -138.7)"/><path id="Path_223" data-name="Path 223" class="cls-5" d="M33.111 146.989a3.83 3.83 0 0 1-4.011-4.064 4.371 4.371 0 0 1 6.364-3.744v1.23a3.905 3.905 0 0 0-2.032-.588 2.82 2.82 0 0 0-2.888 3.048 2.772 2.772 0 0 0 2.781 3.048 4.211 4.211 0 0 0 1.979-.535l.374.963a5.869 5.869 0 0 1-2.567.642z" transform="translate(-13.858 -138.7)"/><path id="Path_224" data-name="Path 224" class="cls-5" d="M52.422 146.08a3.384 3.384 0 0 1-2.514.856 3.409 3.409 0 0 1-2.407-.749 3.192 3.192 0 0 1-.8-2.3v-5.134h1.284v5.081a2.063 2.063 0 0 0 .535 1.5 1.848 1.848 0 0 0 1.39.535 1.939 1.939 0 0 0 1.5-.535 2.048 2.048 0 0 0 .481-1.444v-5.19h1.284v5.188a2.761 2.761 0 0 1-.753 2.192z" transform="translate(-22.046 -138.7)"/><path id="Path_225" data-name="Path 225" class="cls-5" d="M69.925 146.829c-1.284-2.086-1.872-3.209-2.193-3.262h-.749v3.262H65.7V138.7h2.032c2.032 0 2.781 1.016 2.781 2.246a2.283 2.283 0 0 1-1.551 2.139 21.418 21.418 0 0 1 2.46 3.69h-1.5zm-2.246-6.952h-.749v2.674h.749a1.394 1.394 0 0 0 1.444-1.391c.053-.695-.375-1.283-1.444-1.283z" transform="translate(-30.884 -138.7)"/><path id="Path_226" data-name="Path 226" class="cls-5" d="M81.6 146.829V138.7h1.284v8.129z" transform="translate(-38.281 -138.7)"/><path id="Path_227" data-name="Path 227" class="cls-5" d="M95.183 139.923h-2.246v7.006h-1.284v-7.006H89.3V138.8h6.257z" transform="translate(-41.863 -138.747)"/><path id="Path_228" data-name="Path 228" class="cls-5" d="M106.1 146.829V138.7h1.284v8.129z" transform="translate(-49.678 -138.7)"/><path id="Path_229" data-name="Path 229" class="cls-5" d="M115.2 146.829V138.7h4.332l-.374 1.123h-2.621v2.3h2.621v1.123h-2.621v2.46h3.048v1.123z" transform="translate(-53.912 -138.7)"/><path id="Path_230" data-name="Path 230" class="cls-5" d="M131.007 147.036a4.438 4.438 0 0 1-2.407-.7l.535-.963a3.488 3.488 0 0 0 1.818.588c.642 0 1.444-.321 1.444-1.016 0-1.23-1.979-1.5-2.941-2.567a2.072 2.072 0 0 1-.535-1.444c0-1.177.909-2.139 2.567-2.139a4.271 4.271 0 0 1 1.925.428v1.23a3.663 3.663 0 0 0-1.818-.588c-.7 0-1.284.321-1.284.909 0 1.6 3.53 1.551 3.53 4.011a2.6 2.6 0 0 1-2.834 2.251z" transform="translate(-60.145 -138.747)"/></g></svg>